<svg xmlns="http://www.w3.org/2000/svg" viewBox="0 0 500 500" width="500" height="500">
  <!-- Improved Futuristic Abstract PFP -->
  
  <!-- Transparent Background -->
  <rect width="500" height="500" fill="none" />
  
  <!-- Enhanced Dynamic Background Elements -->
  <path d="M0,250 Q125,100 250,250 Q375,400 500,250 Q375,100 250,250 Q125,400 0,250" 
        fill="#7b1fa2" opacity="0.8" />
  <path d="M250,0 Q400,125 250,250 Q100,375 250,500 Q400,375 250,250 Q100,125 250,0" 
        fill="#512da8" opacity="0.8" />
  
  <!-- Additional Pattern -->
  <path d="M125,125 Q250,175 375,125 Q325,250 375,375 Q250,325 125,375 Q175,250 125,125" 
        fill="#9c27b0" opacity="0.2" />
  
  <!-- Enhanced Central Focal Point with Gradient -->
  <defs>
    <radialGradient id="center-glow" cx="50%" cy="50%" r="50%" fx="50%" fy="50%">
      <stop offset="0%" style="stop-color:#6a1b9a;stop-opacity:1" />
      <stop offset="50%" style="stop-color:#311b92;stop-opacity:1" />
      <stop offset="100%" style="stop-color:#000051;stop-opacity:1" />
    </radialGradient>
  </defs>
  <circle cx="250" cy="250" r="150" fill="url(#center-glow)" />
  
  <!-- Glowing Core -->
  <circle cx="250" cy="250" r="120" fill="#000051" />
  <circle cx="250" cy="250" r="90" fill="#1a237e" opacity="0.7" />
  <circle cx="250" cy="250" r="60" fill="#3949ab" opacity="0.4" />
  
  <!-- Enhanced K Symbol with Glow -->
  <defs>
    <filter id="glow-effect" x="-50%" y="-50%" width="200%" height="200%">
      <feGaussianBlur stdDeviation="10" result="blur" />
      <feComposite in="SourceGraphic" in2="blur" operator="over" />
    </filter>
  </defs>
  
  <g transform="translate(250, 250) rotate(15)">
    <!-- Glow layer -->
    <path d="M-60,-90 L-60,90 M-60,0 L60,-90 M-60,0 L60,90" 
          stroke="#8e24aa" stroke-width="25" stroke-linecap="round" stroke-linejoin="round" 
          fill="none" opacity="0.4" filter="url(#glow-effect)" />
    
    <!-- Main K symbol -->
    <path d="M-60,-90 L-60,90 M-60,0 L60,-90 M-60,0 L60,90" 
          stroke="#ffffff" stroke-width="20" stroke-linecap="round" stroke-linejoin="round" fill="none" />
  </g>
  
  <!-- Enhanced Particle Effects -->
  <g fill="#ffffff">
    <circle cx="150" cy="150" r="5" opacity="0.8" />
    <circle cx="350" cy="150" r="4" opacity="0.7" />
    <circle cx="150" cy="350" r="4" opacity="0.7" />
    <circle cx="350" cy="350" r="6" opacity="0.9" />
    <circle cx="200" cy="100" r="3" opacity="0.6" />
    <circle cx="300" cy="400" r="4" opacity="0.7" />
    <circle cx="400" cy="200" r="5" opacity="0.8" />
    <circle cx="100" cy="300" r="5" opacity="0.8" />
    
    <!-- Additional particles -->
    <circle cx="180" cy="180" r="2" opacity="0.5" />
    <circle cx="320" cy="180" r="2" opacity="0.6" />
    <circle cx="180" cy="320" r="3" opacity="0.7" />
    <circle cx="320" cy="320" r="3" opacity="0.5" />
    <circle cx="250" cy="120" r="4" opacity="0.8" />
    <circle cx="250" cy="380" r="4" opacity="0.8" />
    <circle cx="120" cy="250" r="4" opacity="0.8" />
    <circle cx="380" cy="250" r="4" opacity="0.8" />
  </g>
  
  <!-- Enhanced Energy Rings with Pulse Animation -->
  <g fill="none" stroke="#b39ddb">
    <circle cx="250" cy="250" r="180" stroke-width="3" opacity="0.5" />
    <circle cx="250" cy="250" r="200" stroke-width="2" opacity="0.4" />
    <circle cx="250" cy="250" r="220" stroke-width="1" opacity="0.3" />
  </g>
  
  <!-- Enhanced Motion Lines -->
  <g stroke="#d1c4e9" stroke-width="1.5" opacity="0.6">
    <path d="M250,70 Q350,160 250,250 Q150,340 250,430" fill="none" />
    <path d="M70,250 Q160,350 250,250 Q340,150 430,250" fill="none" />
    <path d="M180,80 Q250,150 320,80" fill="none" />
    <path d="M180,420 Q250,350 320,420" fill="none" />
  </g>
  
  <!-- Digital Circuit Pattern -->
  <g stroke="#7e57c2" stroke-width="0.8" opacity="0.3">
    <path d="M100,100 L150,100 L150,150 L200,150" fill="none" />
    <path d="M300,100 L350,100 L350,150 L400,150" fill="none" />
    <path d="M100,400 L150,400 L150,350 L200,350" fill="none" />
    <path d="M300,400 L350,400 L350,350 L400,350" fill="none" />
  </g>
</svg>
