<svg xmlns="http://www.w3.org/2000/svg" viewBox="0 0 500 500" width="500" height="500">
  <!-- Modern Gaming Profile Picture -->
  
  <!-- Transparent Background -->
  <rect width="500" height="500" fill="none" />
  
  <!-- Circular Frame -->
  <circle cx="250" cy="250" r="240" fill="#6200EA" />
  <circle cx="250" cy="250" r="220" fill="#3700B3" />
  
  <!-- Abstract Gaming Pattern -->
  <path d="M250,150 C350,180 380,300 250,350 C120,300 150,180 250,150" fill="#0400BA" />
  
  <!-- Glowing Effects -->
  <g opacity="0.7">
    <circle cx="250" cy="220" r="100" fill="#9D46FF" />
    <circle cx="250" cy="220" r="80" fill="#D4BBFF" />
    <circle cx="250" cy="220" r="60" fill="#FFFFFF" />
  </g>
  
  <!-- Stylized K at Center -->
  <g transform="translate(250, 250)">
    <path d="M-50,-70 L-50,70 M-50,0 L50,-70 M-50,0 L50,70" 
          stroke="#FFFFFF" stroke-width="20" stroke-linecap="round" stroke-linejoin="round" fill="none" />
  </g>
  
  <!-- Controller Elements -->
  <g fill="#FFFFFF" opacity="0.8">
    <circle cx="170" cy="350" r="15" />
    <circle cx="330" cy="350" r="15" />
    <rect x="230" y="340" width="40" height="20" rx="5" />
  </g>
  
  <!-- Glow Effects -->
  <circle cx="250" cy="250" r="240" fill="none" stroke="#BB86FC" stroke-width="5" opacity="0.5" />
</svg>