<svg xmlns="http://www.w3.org/2000/svg" viewBox="0 0 300 300" width="300" height="300">
  <!-- Stack Overflow Gamer Logo -->
  <defs>
    <linearGradient id="stack-grad" x1="0%" y1="0%" x2="100%" y2="100%">
      <stop offset="0%" style="stop-color:#f57c00;stop-opacity:1" />
      <stop offset="100%" style="stop-color:#ff9800;stop-opacity:1" />
    </linearGradient>
  </defs>
  
  <!-- Dark Background -->
  <rect width="300" height="300" fill="#121212" />
  
  <!-- Stack Overflow Style Rectangles -->
  <g>
    <rect x="90" y="200" width="120" height="20" rx="2" fill="#ff9800" />
    <rect x="100" y="180" width="120" height="20" rx="2" fill="#fb8c00" />
    <rect x="110" y="160" width="120" height="20" rx="2" fill="#f57c00" />
    <rect x="120" y="140" width="120" height="20" rx="2" fill="#ef6c00" />
    <rect x="130" y="120" width="120" height="20" rx="2" fill="#e65100" />
  </g>
  
  <!-- Stack Shadow -->
  <g fill="#121212" opacity="0.3">
    <rect x="90" y="205" width="120" height="5" rx="1" />
    <rect x="100" y="185" width="120" height="5" rx="1" />
    <rect x="110" y="165" width="120" height="5" rx="1" />
    <rect x="120" y="145" width="120" height="5" rx="1" />
    <rect x="130" y="125" width="120" height="5" rx="1" />
  </g>
  
  <!-- Stack Overflow Logomark Shape -->
  <polygon points="100,120 85,140 100,160 130,160 145,140 130,120" 
           fill="none" stroke="url(#stack-grad)" stroke-width="3" />
  
  <!-- K Symbol -->
  <path d="M110,130 L110,150 M110,140 L125,130 M110,140 L125,150" 
        stroke="#ffffff" stroke-width="3" stroke-linecap="round" stroke-linejoin="round" fill="none" />
  
  <!-- Gaming Controller Elements -->
  <g fill="none" stroke="#ff9800" stroke-width="2">
    <rect x="190" y="90" width="40" height="20" rx="5" />
    <circle cx="200" cy="100" r="3" />
    <circle cx="220" cy="100" r="3" />
    <rect x="205" y="80" width="10" height="5" rx="2" />
  </g>
  
  <!-- Code Elements -->
  <g fill="none" stroke="#ff9800" stroke-width="1.5">
    <path d="M70,90 L60,100 L70,110" />
    <path d="M90,90 L100,100 L90,110" />
  </g>
  <text x="80" y="105" font-family="'Courier New', monospace" font-size="12" fill="#ff9800">K</text>
  
  <!-- Overflow Element -->
  <g transform="translate(180, 150)">
    <path d="M0,0 C10,-10 20,-10 30,0 C40,10 50,10 60,0" 
          stroke="#ff9800" stroke-width="2" fill="none" stroke-dasharray="4,2" />
    <circle cx="0" cy="0" r="3" fill="#ff9800" />
    <circle cx="30" cy="0" r="3" fill="#ff9800" />
    <circle cx="60" cy="0" r="3" fill="#ff9800" />
  </g>
  
  <!-- Stack Connection Lines -->
  <g stroke="#f57c00" stroke-width="1" stroke-dasharray="3,2">
    <line x1="130" y1="120" x2="150" y2="120" />
    <line x1="145" y1="140" x2="150" y2="140" />
    <line x1="130" y1="160" x2="150" y2="160" />
  </g>
  
  <!-- Text -->
  <text x="150" y="240" font-family="'Segoe UI', sans-serif" font-size="20" font-weight="bold" fill="#ffffff" text-anchor="middle">KnarliX</text>
  <text x="150" y="260" font-family="'Segoe UI', sans-serif" font-size="12" fill="#ff9800" text-anchor="middle">Stack Overflow Gamer</text>
</svg>
