<svg xmlns="http://www.w3.org/2000/svg" viewBox="0 0 300 300" width="300" height="300">
  <!-- Keyboard Warrior Logo -->
  <defs>
    <linearGradient id="keyboard-grad" x1="0%" y1="0%" x2="100%" y2="100%">
      <stop offset="0%" style="stop-color:#d50000;stop-opacity:1" />
      <stop offset="100%" style="stop-color:#ff1744;stop-opacity:1" />
    </linearGradient>
  </defs>
  
  <!-- Dark Background -->
  <rect width="300" height="300" fill="#121212" />
  
  <!-- Keyboard Base -->
  <rect x="50" y="130" width="200" height="80" rx="5" fill="#212121" stroke="#424242" stroke-width="2" />
  
  <!-- Keyboard Keys -->
  <g>
    <!-- Top Row -->
    <rect x="60" y="140" width="20" height="20" rx="2" fill="#424242" stroke="#505050" stroke-width="1" />
    <rect x="85" y="140" width="20" height="20" rx="2" fill="#424242" stroke="#505050" stroke-width="1" />
    <rect x="110" y="140" width="20" height="20" rx="2" fill="#424242" stroke="#505050" stroke-width="1" />
    <rect x="135" y="140" width="20" height="20" rx="2" fill="#424242" stroke="#505050" stroke-width="1" />
    <rect x="160" y="140" width="20" height="20" rx="2" fill="#424242" stroke="#505050" stroke-width="1" />
    <rect x="185" y="140" width="20" height="20" rx="2" fill="#424242" stroke="#505050" stroke-width="1" />
    <rect x="210" y="140" width="20" height="20" rx="2" fill="#424242" stroke="#505050" stroke-width="1" />
    
    <!-- Middle Row -->
    <rect x="70" y="165" width="20" height="20" rx="2" fill="#424242" stroke="#505050" stroke-width="1" />
    <rect x="95" y="165" width="20" height="20" rx="2" fill="#424242" stroke="#505050" stroke-width="1" />
    <rect x="120" y="165" width="20" height="20" rx="2" fill="#ff1744" stroke="#d50000" stroke-width="1" />
    <rect x="145" y="165" width="20" height="20" rx="2" fill="#424242" stroke="#505050" stroke-width="1" />
    <rect x="170" y="165" width="20" height="20" rx="2" fill="#424242" stroke="#505050" stroke-width="1" />
    <rect x="195" y="165" width="20" height="20" rx="2" fill="#424242" stroke="#505050" stroke-width="1" />
    
    <!-- Bottom Row -->
    <rect x="85" y="190" width="120" height="15" rx="2" fill="#424242" stroke="#505050" stroke-width="1" />
  </g>
  
  <!-- K Key Highlight -->
  <rect x="120" y="165" width="20" height="20" rx="2" fill="url(#keyboard-grad)" />
  <text x="130" y="180" font-family="'Segoe UI', sans-serif" font-size="14" font-weight="bold" fill="#ffffff" text-anchor="middle">K</text>
  
  <!-- WASD Keys Highlight -->
  <rect x="85" y="140" width="20" height="20" rx="2" fill="#d50000" opacity="0.7" />
  <rect x="60" y="165" width="20" height="20" rx="2" fill="#d50000" opacity="0.7" />
  <rect x="85" y="165" width="20" height="20" rx="2" fill="#d50000" opacity="0.7" />
  <rect x="110" y="165" width="20" height="20" rx="2" fill="#d50000" opacity="0.7" />
  
  <text x="95" y="155" font-family="'Segoe UI', sans-serif" font-size="14" font-weight="bold" fill="#ffffff" text-anchor="middle">W</text>
  <text x="70" y="180" font-family="'Segoe UI', sans-serif" font-size="14" font-weight="bold" fill="#ffffff" text-anchor="middle">A</text>
  <text x="95" y="180" font-family="'Segoe UI', sans-serif" font-size="14" font-weight="bold" fill="#ffffff" text-anchor="middle">S</text>
  <text x="110" y="180" font-family="'Segoe UI', sans-serif" font-size="14" font-weight="bold" fill="#ffffff" text-anchor="middle">D</text>
  
  <!-- Sword Cursor -->
  <g transform="translate(200, 100) rotate(45)">
    <rect x="-5" y="-20" width="10" height="40" fill="url(#keyboard-grad)" />
    <rect x="-15" y="-5" width="30" height="10" fill="url(#keyboard-grad)" />
  </g>
  
  <!-- Code Elements -->
  <g fill="none" stroke="#ffffff" stroke-width="1" stroke-dasharray="5,2">
    <path d="M60,100 L90,100" />
    <path d="M210,100 L240,100" />
    <path d="M60,110 L80,110" />
    <path d="M220,110 L240,110" />
  </g>
  
  <!-- Text -->
  <text x="150" y="245" font-family="'Segoe UI', sans-serif" font-size="20" font-weight="bold" fill="#ffffff" text-anchor="middle">KnarliX</text>
  <text x="150" y="265" font-family="'Segoe UI', sans-serif" font-size="12" fill="#ff1744" text-anchor="middle">Keyboard Warrior</text>
</svg>
