<svg xmlns="http://www.w3.org/2000/svg" viewBox="0 0 300 300" width="300" height="300">
  <!-- Git Master Logo -->
  <defs>
    <linearGradient id="git-grad" x1="0%" y1="0%" x2="100%" y2="100%">
      <stop offset="0%" style="stop-color:#f05033;stop-opacity:1" />
      <stop offset="100%" style="stop-color:#f05033;stop-opacity:0.7" />
    </linearGradient>
    <filter id="shadow-git" x="-20%" y="-20%" width="140%" height="140%">
      <feGaussianBlur in="SourceAlpha" stdDeviation="3" result="blur" />
      <feOffset dx="2" dy="2" result="offsetblur" />
      <feComponentTransfer>
        <feFuncA type="linear" slope="0.5" />
      </feComponentTransfer>
      <feMerge>
        <feMergeNode />
        <feMergeNode in="SourceGraphic" />
      </feMerge>
    </filter>
  </defs>
  
  <!-- Dark Background -->
  <rect width="300" height="300" fill="#0d1117" />
  
  <!-- Git Branch Network -->
  <g fill="none" stroke="#30363d" stroke-width="1.5">
    <path d="M50,50 L250,50" />
    <path d="M50,100 L250,100" />
    <path d="M50,150 L250,150" />
    <path d="M50,200 L250,200" />
    <path d="M50,250 L250,250" />
    
    <path d="M80,50 L80,250" />
    <path d="M150,50 L150,250" />
    <path d="M220,50 L220,250" />
  </g>
  
  <!-- Branch Connections -->
  <g stroke="#f05033" stroke-width="2" stroke-linecap="round">
    <path d="M80,100 C100,100 120,150 150,150" />
    <path d="M80,200 C100,200 120,150 150,150" />
    <path d="M150,150 C180,150 200,100 220,100" />
    <path d="M150,150 C180,150 200,200 220,200" />
  </g>
  
  <!-- Git Nodes -->
  <g>
    <circle cx="80" cy="100" r="8" fill="#0d1117" stroke="#f05033" stroke-width="2" />
    <circle cx="80" cy="200" r="8" fill="#0d1117" stroke="#f05033" stroke-width="2" />
    <circle cx="150" cy="150" r="8" fill="#0d1117" stroke="#f05033" stroke-width="2" />
    <circle cx="220" cy="100" r="8" fill="#0d1117" stroke="#f05033" stroke-width="2" />
    <circle cx="220" cy="200" r="8" fill="#0d1117" stroke="#f05033" stroke-width="2" />
  </g>
  
  <!-- K Master Branch -->
  <g transform="translate(150, 150)">
    <path d="M-8,-12 L-8,12 M-8,0 L8,-12 M-8,0 L8,12" 
          stroke="#ffffff" stroke-width="3" stroke-linecap="round" stroke-linejoin="round" fill="none" />
  </g>
  
  <!-- Master Badge -->
  <g transform="translate(220, 100)">
    <circle cx="0" cy="0" r="15" fill="url(#git-grad)" filter="url(#shadow-git)" />
    <text x="0" y="4" font-family="'Segoe UI', sans-serif" font-size="10" font-weight="bold" fill="#ffffff" text-anchor="middle">M</text>
  </g>
  
  <!-- Gaming Branch Badge -->
  <g transform="translate(80, 100)">
    <circle cx="0" cy="0" r="15" fill="#30363d" stroke="#f05033" stroke-width="1.5" />
    <text x="0" y="4" font-family="'Segoe UI', sans-serif" font-size="10" font-weight="bold" fill="#ffffff" text-anchor="middle">G</text>
  </g>
  
  <!-- Dev Branch Badge -->
  <g transform="translate(80, 200)">
    <circle cx="0" cy="0" r="15" fill="#30363d" stroke="#f05033" stroke-width="1.5" />
    <text x="0" y="4" font-family="'Segoe UI', sans-serif" font-size="10" font-weight="bold" fill="#ffffff" text-anchor="middle">D</text>
  </g>
  
  <!-- Feature Branch Badge -->
  <g transform="translate(220, 200)">
    <circle cx="0" cy="0" r="15" fill="#30363d" stroke="#f05033" stroke-width="1.5" />
    <text x="0" y="4" font-family="'Segoe UI', sans-serif" font-size="10" font-weight="bold" fill="#ffffff" text-anchor="middle">F</text>
  </g>
  
  <!-- SHA Hash Labels -->
  <g font-family="'Courier New', monospace" font-size="8" fill="#8b949e">
    <text x="85" y="110">a7f3e1d</text>
    <text x="85" y="210">9c4b23f</text>
    <text x="155" y="160">e8d5c2a</text>
    <text x="225" y="110">3b71f9a</text>
    <text x="225" y="210">6d0e4b8</text>
  </g>
  
  <!-- Text -->
  <text x="150" y="270" font-family="'Segoe UI', sans-serif" font-size="20" font-weight="bold" fill="#ffffff" text-anchor="middle">KnarliX</text>
  <text x="150" y="290" font-family="'Segoe UI', sans-serif" font-size="12" fill="#f05033" text-anchor="middle">Git Master</text>
</svg>
