<svg xmlns="http://www.w3.org/2000/svg" viewBox="0 0 300 300" width="300" height="300">
  <!-- Function Player Logo -->
  <defs>
    <linearGradient id="function-grad" x1="0%" y1="0%" x2="100%" y2="100%">
      <stop offset="0%" style="stop-color:#ff5722;stop-opacity:1" />
      <stop offset="100%" style="stop-color:#ff9800;stop-opacity:1" />
    </linearGradient>
  </defs>
  
  <!-- Dark Background -->
  <rect width="300" height="300" fill="#263238" />
  
  <!-- Function Graph Grid -->
  <g stroke="#37474f" stroke-width="0.5">
    <line x1="50" y1="150" x2="250" y2="150" />
    <line x1="150" y1="50" x2="150" y2="250" />
    
    <line x1="50" y1="100" x2="250" y2="100" />
    <line x1="50" y1="200" x2="250" y2="200" />
    <line x1="100" y1="50" x2="100" y2="250" />
    <line x1="200" y1="50" x2="200" y2="250" />
  </g>
  
  <!-- Function Curve - Sine Wave -->
  <path d="M50,150 C75,100 100,200 125,150 C150,100 175,200 200,150 C225,100 250,200 275,150" 
        stroke="#ff5722" stroke-width="3" fill="none" />
  
  <!-- Central Circle -->
  <circle cx="150" cy="150" r="40" fill="#263238" stroke="url(#function-grad)" stroke-width="3" />
  
  <!-- K Mathematical Symbol -->
  <path d="M135,130 L135,170 M135,150 L160,130 M135,150 L160,170" 
        stroke="#ffffff" stroke-width="4" stroke-linecap="round" stroke-linejoin="round" fill="none" />
  
  <!-- Function Parameters -->
  <g font-family="'Courier New', monospace" font-size="10" fill="#b0bec5">
    <text x="60" y="70">f(x) = KnarliX(x)</text>
    <text x="60" y="90">x ∈ [gaming, coding]</text>
    <text x="190" y="230">∫ skill dx = ∞</text>
  </g>
  
  <!-- Axis Labels -->
  <g font-family="'Segoe UI', sans-serif" font-size="10" fill="#b0bec5">
    <text x="155" y="60">skill</text>
    <text x="240" y="145">time</text>
  </g>
  
  <!-- Gaming Controller Symbol -->
  <rect x="100" y="200" width="20" height="12" rx="3" fill="none" stroke="#ff9800" stroke-width="1.5" />
  <circle cx="105" cy="206" r="2" fill="#ff9800" />
  <circle cx="115" cy="206" r="2" fill="#ff9800" />
  
  <!-- Coding Symbol -->
  <g fill="none" stroke="#ff9800" stroke-width="1.5">
    <path d="M190,200 L180,206 L190,212" />
    <path d="M200,200 L210,206 L200,212" />
  </g>
  
  <!-- Domain and Range Markers -->
  <circle cx="75" cy="150" r="3" fill="#ff5722" />
  <circle cx="125" cy="150" r="3" fill="#ff5722" />
  <circle cx="175" cy="150" r="3" fill="#ff5722" />
  <circle cx="225" cy="150" r="3" fill="#ff5722" />
  
  <!-- Text -->
  <text x="150" y="250" font-family="'Segoe UI', sans-serif" font-size="18" font-weight="bold" fill="#ffffff" text-anchor="middle">KnarliX</text>
</svg>
