<svg xmlns="http://www.w3.org/2000/svg" viewBox="0 0 500 500" width="500" height="500">
  <!-- Character-based Gamer PFP 4 - Dragon Knight -->
  
  <!-- Transparent Background -->
  <rect width="500" height="500" fill="none" />
  
  <!-- Backdrop -->
  <circle cx="250" cy="250" r="240" fill="#1a0d00" />
  <circle cx="250" cy="250" r="200" fill="#331a00" />
  
  <!-- Character Base -->
  <g transform="translate(250, 240)">
    <!-- Knight Helmet -->
    <path d="M-70,-80 C-80,-100 -60,-130 0,-130 C60,-130 80,-100 70,-80 L80,20 C70,80 -70,80 -80,20 Z" 
          fill="#4d4d4d" stroke="#666666" stroke-width="2" />
    
    <!-- Helmet Visor -->
    <path d="M-40,-60 L-25,-80 L25,-80 L40,-60 L30,10 L-30,10 Z" 
          fill="#2d2d2d" stroke="#444444" stroke-width="2" />
    
    <!-- Dragon Horns -->
    <path d="M-60,-90 C-80,-120 -90,-115 -100,-140 C-60,-130 -50,-120 -40,-110" 
          fill="#8b3900" stroke="#cc5200" stroke-width="2" />
    <path d="M60,-90 C80,-120 90,-115 100,-140 C60,-130 50,-120 40,-110" 
          fill="#8b3900" stroke="#cc5200" stroke-width="2" />
    
    <!-- Shoulder Armor -->
    <path d="M-70,-10 L-90,15 L-100,40 L-85,60 L-60,55" 
          fill="#4d4d4d" stroke="#666666" stroke-width="2" />
    <path d="M70,-10 L90,15 L100,40 L85,60 L60,55" 
          fill="#4d4d4d" stroke="#666666" stroke-width="2" />
  </g>
  
  <!-- Glowing Elements -->
  <g>
    <!-- Eyes Glow -->
    <circle cx="205" cy="170" r="8" fill="#ff6600" opacity="0.8" />
    <circle cx="295" cy="170" r="8" fill="#ff6600" opacity="0.8" />
    
    <!-- Armor Highlights -->
    <line x1="190" y1="235" x2="210" y2="235" stroke="#ff6600" stroke-width="2" opacity="0.6" />
    <line x1="290" y1="235" x2="310" y2="235" stroke="#ff6600" stroke-width="2" opacity="0.6" />
    
    <!-- Chest Emblem -->
    <path d="M235,280 L250,265 L265,280 L250,330 Z" 
          fill="#ff6600" stroke="#ff9900" stroke-width="1" opacity="0.8" />
  </g>
  
  <!-- Dragon Breath Effect -->
  <g opacity="0.6">
    <path d="M230,210 Q250,230 270,210 Q280,190 290,200 Q270,225 250,220 Q230,225 210,200 Q220,190 230,210" 
          fill="#ff6600" />
    <path d="M235,215 Q250,230 265,215 Q270,200 280,205 Q265,220 250,218 Q235,220 220,205 Q230,200 235,215" 
          fill="#ff9900" />
  </g>
  
  <!-- Fire Particle Effects -->
  <g fill="#ff6600">
    <circle cx="220" cy="190" r="3" opacity="0.7" />
    <circle cx="280" cy="190" r="3" opacity="0.7" />
    <circle cx="250" cy="180" r="4" opacity="0.5" />
    <circle cx="240" cy="195" r="2" opacity="0.6" />
    <circle cx="260" cy="195" r="2" opacity="0.6" />
  </g>
  
  <!-- Hidden K in Dragon Scale Pattern -->
  <g fill="none" stroke="#ff9900" opacity="0.5">
    <path d="M240,290 L240,320 M240,305 L255,290 M240,305 L255,320" stroke-width="2" />
    
    <!-- Surrounding Scales -->
    <path d="M220,280 Q230,290 220,300" stroke-width="1" />
    <path d="M270,280 Q260,290 270,300" stroke-width="1" />
    <path d="M220,310 Q230,320 220,330" stroke-width="1" />
    <path d="M270,310 Q260,320 270,330" stroke-width="1" />
    <path d="M230,270 Q250,260 270,270" stroke-width="1" />
    <path d="M230,340 Q250,350 270,340" stroke-width="1" />
  </g>
  
  <!-- Dragon Scales Background Pattern -->
  <g fill="none" stroke="#8b3900" opacity="0.3">
    <path d="M150,150 Q160,160 150,170" />
    <path d="M170,130 Q180,140 170,150" />
    <path d="M190,150 Q200,160 190,170" />
    <path d="M210,130 Q220,140 210,150" />
    <path d="M350,150 Q340,160 350,170" />
    <path d="M330,130 Q320,140 330,150" />
    <path d="M310,150 Q300,160 310,170" />
    <path d="M290,130 Q280,140 290,150" />
    
    <path d="M150,350 Q160,340 150,330" />
    <path d="M170,370 Q180,360 170,350" />
    <path d="M190,350 Q200,340 190,330" />
    <path d="M210,370 Q220,360 210,350" />
    <path d="M350,350 Q340,340 350,330" />
    <path d="M330,370 Q320,360 330,350" />
    <path d="M310,350 Q300,340 310,330" />
    <path d="M290,370 Q280,360 290,350" />
  </g>
</svg>
