<svg xmlns="http://www.w3.org/2000/svg" viewBox="0 0 500 500" width="500" height="500">
  <!-- Character-based Gamer PFP 3 - Cyber Ninja -->
  
  <!-- Transparent Background -->
  <rect width="500" height="500" fill="none" />
  
  <!-- Backdrop -->
  <circle cx="250" cy="250" r="240" fill="#070d25" />
  <circle cx="250" cy="250" r="200" fill="#0c1b44" />
  
  <!-- Character Base -->
  <g transform="translate(250, 250)">
    <!-- Ninja Mask -->
    <path d="M-60,-90 C-70,-60 -75,-20 -70,20 C-65,60 -40,90 0,100 C40,90 65,60 70,20 C75,-20 70,-60 60,-90 C20,-100 -20,-100 -60,-90 Z" 
          fill="#14213d" stroke="#2a446e" stroke-width="2" />
    
    <!-- Mask Details -->
    <path d="M-30,-40 C-15,-50 15,-50 30,-40 C25,-20 15,0 0,10 C-15,0 -25,-20 -30,-40 Z" 
          fill="#14213d" stroke="#2a446e" stroke-width="1" />
    
    <!-- Eye Slits -->
    <path d="M-35,-30 L-15,-35 L-25,-25 Z" 
          fill="#00f5d4" stroke="#00f5d4" stroke-width="0.5" />
    <path d="M35,-30 L15,-35 L25,-25 Z" 
          fill="#00f5d4" stroke="#00f5d4" stroke-width="0.5" />
  </g>
  
  <!-- Ninja Gear -->
  <g>
    <!-- Shoulder Guards -->
    <path d="M150,210 L140,230 L160,250 L190,240 L180,210 Z" 
          fill="#14213d" stroke="#2a446e" stroke-width="2" />
    <path d="M350,210 L360,230 L340,250 L310,240 L320,210 Z" 
          fill="#14213d" stroke="#2a446e" stroke-width="2" />
    
    <!-- Arm Wraps -->
    <path d="M180,260 Q160,280 170,310 Q190,300 195,330" 
          fill="none" stroke="#2a446e" stroke-width="3" />
    <path d="M320,260 Q340,280 330,310 Q310,300 305,330" 
          fill="none" stroke="#2a446e" stroke-width="3" />
    
    <!-- Body Armor Lines -->
    <path d="M220,300 L280,300" stroke="#2a446e" stroke-width="3" />
    <path d="M210,320 L290,320" stroke="#2a446e" stroke-width="2" />
    <path d="M210,340 L290,340" stroke="#2a446e" stroke-width="2" />
  </g>
  
  <!-- Tech Elements -->
  <g>
    <!-- Circuit Lines -->
    <path d="M190,210 L210,190 L240,185 L260,185 L290,190 L310,210" 
          stroke="#00f5d4" stroke-width="1" fill="none" opacity="0.8" />
    
    <!-- Kunai -->
    <path d="M170,340 L180,320 L190,340" 
          stroke="#00f5d4" stroke-width="1.5" fill="none" />
    <path d="M330,340 L320,320 L310,340" 
          stroke="#00f5d4" stroke-width="1.5" fill="none" />
    
    <!-- Energy Points -->
    <circle cx="210" cy="230" r="4" fill="#00f5d4" />
    <circle cx="290" cy="230" r="4" fill="#00f5d4" />
  </g>
  
  <!-- Digital Particle Effects -->
  <g fill="#00f5d4" opacity="0.6">
    <circle cx="170" cy="170" r="2" />
    <circle cx="330" cy="170" r="2" />
    <circle cx="170" cy="330" r="2" />
    <circle cx="330" cy="330" r="2" />
    <circle cx="210" cy="130" r="3" />
    <circle cx="290" cy="130" r="3" />
    <circle cx="130" cy="210" r="3" />
    <circle cx="370" cy="210" r="3" />
  </g>
  
  <!-- Digital Smoke -->
  <g fill="#00f5d4" opacity="0.2">
    <circle cx="200" cy="350" r="15" />
    <circle cx="300" cy="350" r="15" />
    <circle cx="250" cy="380" r="25" />
  </g>
  
  <!-- Stealth K Symbol (subtle ninja star shape) -->
  <g transform="translate(250, 270) rotate(45)">
    <path d="M-20,-3 L-20,3 L-3,3 L-3,20 L3,20 L3,3 L20,3 L20,-3 L3,-3 L3,-20 L-3,-20 L-3,-3 Z" 
          fill="#00f5d4" opacity="0.7" />
  </g>
</svg>
