<svg xmlns="http://www.w3.org/2000/svg" viewBox="0 0 500 500" width="500" height="500">
  <!-- Character-based Gamer PFP - Ninja Hacker -->
  
  <!-- Transparent Background -->
  <rect width="500" height="500" fill="none" />
  
  <!-- Dark Matrix-like Background -->
  <circle cx="250" cy="250" r="240" fill="#000a06" />
  
  <!-- Matrix Code Pattern -->
  <g fill="#00ff9d" opacity="0.1" font-family="monospace" font-size="8">
    <text x="100" y="100">01100101 10110100</text>
    <text x="140" y="115">11001010 01011010</text>
    <text x="80" y="130">10100101 10010110</text>
    <text x="120" y="145">01011100 10101101</text>
    <text x="90" y="160">11010101 01010110</text>
    
    <text x="300" y="100">01010110 10110100</text>
    <text x="270" y="115">10010101 01011001</text>
    <text x="320" y="130">01100101 10010110</text>
    <text x="280" y="145">10101100 10101010</text>
    <text x="310" y="160">01101001 01010110</text>
    
    <text x="100" y="350">01101001 10110100</text>
    <text x="140" y="365">10010101 01011001</text>
    <text x="80" y="380">01100101 10010111</text>
    <text x="120" y="395">10101010 10101010</text>
    <text x="90" y="410">01010101 01010110</text>
    
    <text x="300" y="350">01010110 10101010</text>
    <text x="270" y="365">10110011 01010101</text>
    <text x="320" y="380">01010101 10010110</text>
    <text x="280" y="395">10100110 10101001</text>
    <text x="310" y="410">01011001 01001010</text>
  </g>
  
  <!-- Character Base -->
  <g>
    <!-- Ninja Body Shadow -->
    <path d="M210,240 Q250,220 290,240 L300,320 Q250,350 200,320 Z" 
          fill="#001a12" stroke="#002b1a" stroke-width="1" />
    
    <!-- Ninja Body -->
    <path d="M210,240 Q250,220 290,240 L290,320 Q250,340 210,320 Z" 
          fill="#002b1a" stroke="#003e26" stroke-width="1" />
    
    <!-- Ninja Mask/Head -->
    <ellipse cx="250" cy="210" rx="45" ry="50" fill="#003e26" />
    
    <!-- Ninja Mask Details -->
    <path d="M220,190 H280 Q270,240 250,250 Q230,240 220,190 Z" 
          fill="#002b1a" stroke="#003e26" stroke-width="1" />
  </g>
  
  <!-- Tech Features -->
  <g>
    <!-- Glowing Eyes -->
    <ellipse cx="230" cy="210" rx="10" ry="5" fill="#000000" />
    <ellipse cx="270" cy="210" rx="10" ry="5" fill="#000000" />
    <ellipse cx="230" cy="210" rx="6" ry="3" fill="#00ff9d" opacity="0.8" />
    <ellipse cx="270" cy="210" rx="6" ry="3" fill="#00ff9d" opacity="0.8" />
    
    <!-- AR Interface -->
    <path d="M200,210 L180,200 L180,220 L200,215" 
          fill="#001a12" stroke="#00ff9d" stroke-width="1" opacity="0.7" />
    <path d="M300,210 L320,200 L320,220 L300,215" 
          fill="#001a12" stroke="#00ff9d" stroke-width="1" opacity="0.7" />
    
    <!-- Data Nodes -->
    <circle cx="180" cy="210" r="5" fill="#001a12" stroke="#00ff9d" stroke-width="1" opacity="0.7" />
    <circle cx="320" cy="210" r="5" fill="#001a12" stroke="#00ff9d" stroke-width="1" opacity="0.7" />
  </g>
  
  <!-- Cybernetic Accessories -->
  <g>
    <!-- Shoulder Guards -->
    <path d="M210,240 L190,230 Q180,240 185,260 L205,265" 
          fill="#002b1a" stroke="#00ff9d" stroke-width="1" opacity="0.7" />
    <path d="M290,240 L310,230 Q320,240 315,260 L295,265" 
          fill="#002b1a" stroke="#00ff9d" stroke-width="1" opacity="0.7" />
    
    <!-- Ninja Scarf/Cape -->
    <path d="M240,250 Q250,260 260,250 L270,310 Q250,320 230,310 Z" 
          fill="#001a12" stroke="#002b1a" stroke-width="1" />
    
    <!-- Tech Belt -->
    <rect x="220" y="290" width="60" height="10" rx="3" ry="3" 
          fill="#001a12" stroke="#00ff9d" stroke-width="1" opacity="0.7" />
    
    <!-- Belt Data Points -->
    <circle cx="230" cy="295" r="2" fill="#00ff9d" opacity="0.9" />
    <circle cx="250" cy="295" r="2" fill="#00ff9d" opacity="0.9" />
    <circle cx="270" cy="295" r="2" fill="#00ff9d" opacity="0.9" />
  </g>
  
  <!-- Ninja Weapons -->
  <g>
    <!-- Digital Kunai -->
    <path d="M190,320 L180,340 L170,350 L185,345 L190,330" 
          fill="#002b1a" stroke="#003e26" stroke-width="1" />
    <path d="M180,340 L170,350" stroke="#00ff9d" stroke-width="1" opacity="0.7" />
    
    <!-- Data Katana -->
    <path d="M310,320 L330,350 L320,360 L300,340" 
          fill="#002b1a" stroke="#003e26" stroke-width="1" />
    <path d="M315,325 L335,355" stroke="#00ff9d" stroke-width="1" opacity="0.7" />
  </g>
  
  <!-- Tech Effects -->
  <g>
    <!-- Data Streams -->
    <g fill="none" stroke="#00ff9d" stroke-width="1" opacity="0.4">
      <path d="M230,210 Q200,200 180,210" />
      <path d="M270,210 Q300,200 320,210" />
      <path d="M230,295 Q210,310 190,320" />
      <path d="M270,295 Q290,310 310,320" />
    </g>
    
    <!-- Tech Particles -->
    <g fill="#00ff9d">
      <circle cx="190" cy="230" r="1" opacity="0.7" />
      <circle cx="310" cy="230" r="1" opacity="0.7" />
      <circle cx="200" cy="280" r="1" opacity="0.7" />
      <circle cx="300" cy="280" r="1" opacity="0.7" />
      <circle cx="230" cy="270" r="1" opacity="0.7" />
      <circle cx="270" cy="270" r="1" opacity="0.7" />
      <circle cx="250" cy="290" r="1" opacity="0.7" />
    </g>
  </g>
  
  <!-- K Symbol Integration -->
  <g opacity="0.8">
    <path d="M245,310 L245,330 M245,320 L260,310 M245,320 L260,330" 
          stroke="#00ff9d" stroke-width="1" fill="none" />
    
    <!-- Ninja Star Around K -->
    <path d="M252.5,320 L255,315 L252.5,310 L250,315 Z" 
          fill="none" stroke="#00ff9d" stroke-width="1" opacity="0.6" />
    <path d="M252.5,320 L255,325 L252.5,330 L250,325 Z" 
          fill="none" stroke="#00ff9d" stroke-width="1" opacity="0.6" />
    <path d="M242.5,320 L240,315 L242.5,310 L245,315 Z" 
          fill="none" stroke="#00ff9d" stroke-width="1" opacity="0.6" />
    <path d="M242.5,320 L240,325 L242.5,330 L245,325 Z" 
          fill="none" stroke="#00ff9d" stroke-width="1" opacity="0.6" />
  </g>
  
  <!-- Data Flow Background -->
  <g opacity="0.2">
    <path d="M50,250 Q250,200 450,250 Q250,300 50,250" 
          fill="none" stroke="#00ff9d" stroke-width="1" />
    <path d="M250,50 Q200,250 250,450 Q300,250 250,50" 
          fill="none" stroke="#00ff9d" stroke-width="1" />
  </g>
</svg>
