<svg xmlns="http://www.w3.org/2000/svg" viewBox="0 0 500 500" width="500" height="500">
  <!-- Futuristic Abstract PFP -->
  
  <!-- Transparent Background -->
  <rect width="500" height="500" fill="none" />
  
  <!-- Dynamic Background Elements -->
  <path d="M0,250 Q125,100 250,250 Q375,400 500,250 Q375,100 250,250 Q125,400 0,250" 
        fill="#7b1fa2" opacity="0.7" />
  <path d="M250,0 Q400,125 250,250 Q100,375 250,500 Q400,375 250,250 Q100,125 250,0" 
        fill="#512da8" opacity="0.7" />
  
  <!-- Central Focal Point -->
  <circle cx="250" cy="250" r="150" fill="#311b92" />
  <circle cx="250" cy="250" r="120" fill="#000051" />
  
  <!-- Abstract K Representation -->
  <g transform="translate(250, 250) rotate(15)">
    <path d="M-60,-90 L-60,90 M-60,0 L60,-90 M-60,0 L60,90" 
          stroke="#ffffff" stroke-width="20" stroke-linecap="round" stroke-linejoin="round" fill="none" />
  </g>
  
  <!-- Particle Effects -->
  <g fill="#ffffff">
    <circle cx="150" cy="150" r="5" opacity="0.8" />
    <circle cx="350" cy="150" r="3" opacity="0.6" />
    <circle cx="150" cy="350" r="4" opacity="0.7" />
    <circle cx="350" cy="350" r="6" opacity="0.9" />
    <circle cx="200" cy="100" r="2" opacity="0.5" />
    <circle cx="300" cy="400" r="3" opacity="0.6" />
    <circle cx="400" cy="200" r="4" opacity="0.7" />
    <circle cx="100" cy="300" r="5" opacity="0.8" />
  </g>
  
  <!-- Energy Rings -->
  <g fill="none" stroke="#b39ddb" opacity="0.4">
    <circle cx="250" cy="250" r="180" stroke-width="2" />
    <circle cx="250" cy="250" r="200" stroke-width="1" />
    <circle cx="250" cy="250" r="220" stroke-width="0.5" />
  </g>
  
  <!-- Motion Lines -->
  <g stroke="#d1c4e9" stroke-width="1" opacity="0.5">
    <path d="M250,70 Q350,160 250,250 Q150,340 250,430" fill="none" />
    <path d="M70,250 Q160,350 250,250 Q340,150 430,250" fill="none" />
  </g>
</svg>
