<svg xmlns="http://www.w3.org/2000/svg" viewBox="0 0 500 500" width="500" height="500">
  <!-- Character-based Gamer PFP - Tech Demon -->
  
  <!-- Transparent Background -->
  <rect width="500" height="500" fill="none" />
  
  <!-- Dark Background -->
  <circle cx="250" cy="250" r="240" fill="#0c0014" />
  <circle cx="250" cy="250" r="200" fill="#150025" />
  
  <!-- Fiery Ambient Effect -->
  <g opacity="0.3">
    <radialGradient id="fireGlow" cx="250" cy="250" r="180" gradientUnits="userSpaceOnUse">
      <stop offset="0%" stop-color="#ff006e" />
      <stop offset="40%" stop-color="#8000ff" stop-opacity="0.5" />
      <stop offset="100%" stop-color="#000000" stop-opacity="0" />
    </radialGradient>
    <circle cx="250" cy="250" r="180" fill="url(#fireGlow)" />
  </g>
  
  <!-- Character Base -->
  <g>
    <!-- Demon Body -->
    <path d="M190,240 Q250,270 310,240 L300,350 Q250,370 200,350 Z" 
          fill="#330033" stroke="#540054" stroke-width="2" />
    
    <!-- Demon Head -->
    <path d="M200,240 Q250,200 300,240 Q300,300 250,310 Q200,300 200,240 Z" 
          fill="#3a0042" stroke="#540054" stroke-width="2" />
    
    <!-- Demon Horns -->
    <path d="M220,220 L200,170 L210,160 L230,210" 
          fill="#540054" stroke="#720772" stroke-width="2" />
    <path d="M280,220 L300,170 L290,160 L270,210" 
          fill="#540054" stroke="#720772" stroke-width="2" />
    
    <!-- Shoulder Spikes -->
    <path d="M190,240 L160,230 L150,210 L180,230" 
          fill="#3a0042" stroke="#540054" stroke-width="2" />
    <path d="M310,240 L340,230 L350,210 L320,230" 
          fill="#3a0042" stroke="#540054" stroke-width="2" />
  </g>
  
  <!-- Tech Features -->
  <g>
    <!-- Eyes -->
    <ellipse cx="225" cy="240" rx="15" ry="10" fill="#000000" />
    <ellipse cx="275" cy="240" rx="15" ry="10" fill="#000000" />
    <ellipse cx="225" cy="240" rx="10" ry="6" fill="#ff006e" opacity="0.8" />
    <ellipse cx="275" cy="240" rx="10" ry="6" fill="#ff006e" opacity="0.8" />
    
    <!-- Mouth Tech -->
    <path d="M230,270 Q250,285 270,270" stroke="#000000" stroke-width="4" fill="none" />
    <path d="M230,270 Q250,285 270,270" stroke="#ff006e" stroke-width="2" fill="none" opacity="0.8" />
    
    <!-- Tech Implants/Patterns -->
    <g fill="none" stroke="#ff006e" stroke-width="2" opacity="0.8">
      <path d="M210,250 L190,260" />
      <path d="M290,250 L310,260" />
      <path d="M220,290 L200,310" />
      <path d="M280,290 L300,310" />
      <path d="M250,300 L250,330" />
    </g>
  </g>
  
  <!-- Chest Tech Core -->
  <g>
    <circle cx="250" cy="280" r="20" fill="#1a001a" stroke="#540054" stroke-width="2" />
    <circle cx="250" cy="280" r="15" fill="#300030" />
    <circle cx="250" cy="280" r="10" fill="#ff006e" opacity="0.8" >
      <animate attributeName="opacity" values="0.6;0.9;0.6" dur="2s" repeatCount="indefinite" />
    </circle>
    
    <!-- Tech Patterns Radiating from Core -->
    <g fill="none" stroke="#ff006e" stroke-width="1" opacity="0.5">
      <path d="M250,260 L250,240" />
      <path d="M250,300 L250,320" />
      <path d="M230,280 L210,280" />
      <path d="M270,280 L290,280" />
      <path d="M235,265 L220,250" />
      <path d="M265,265 L280,250" />
      <path d="M235,295 L220,310" />
      <path d="M265,295 L280,310" />
    </g>
  </g>
  
  <!-- Energy Effects -->
  <g>
    <!-- Energy Mist -->
    <g fill="#ff006e" opacity="0.2">
      <ellipse cx="250" cy="350" rx="80" ry="20" />
    </g>
    
    <!-- Energy Particles -->
    <g fill="#ff006e">
      <circle cx="220" cy="210" r="1.5" opacity="0.7" />
      <circle cx="280" cy="210" r="1.5" opacity="0.7" />
      <circle cx="200" cy="260" r="1" opacity="0.7" />
      <circle cx="300" cy="260" r="1" opacity="0.7" />
      <circle cx="230" cy="330" r="1" opacity="0.7" />
      <circle cx="270" cy="330" r="1" opacity="0.7" />
      <circle cx="250" cy="310" r="1.5" opacity="0.7" />
    </g>
  </g>
  
  <!-- K Symbol Integration -->
  <g opacity="0.6">
    <path d="M240,340 L240,360 M240,350 L255,340 M240,350 L255,360" 
          stroke="#ff006e" stroke-width="2" fill="none" />
    
    <!-- Tech Pattern Around K -->
    <g fill="none" stroke="#ff006e" stroke-width="1" opacity="0.4">
      <circle cx="248" cy="350" r="15" />
      <path d="M233,350 L225,350" />
      <path d="M263,350 L271,350" />
      <path d="M248,335 L248,327" />
      <path d="M248,365 L248,373" />
    </g>
  </g>
  
  <!-- Background Tech Elements -->
  <g fill="none" stroke="#540054" stroke-width="1" opacity="0.4">
    <circle cx="250" cy="250" r="220" />
    <circle cx="250" cy="250" r="190" />
    <path d="M100,250 H150 M350,250 H400" />
    <path d="M250,100 V150 M250,350 V400" />
    <path d="M175,175 L140,140 M325,175 L360,140" />
    <path d="M175,325 L140,360 M325,325 L360,360" />
  </g>
</svg>
